<?xml version="1.0" encoding="iso-8859-1"?>
<!-- Uploaded to: SVG Repo, www.svgrepo.com, Generator: SVG Repo Mixer Tools -->
<svg version="1.1" id="Layer_1" xmlns="http://www.w3.org/2000/svg" xmlns:xlink="http://www.w3.org/1999/xlink" 
	 viewBox="0 0 512 512" xml:space="preserve">
<g>
	<path style="fill:#666666;" d="M343.716,167.339c11.873,0,21.496,9.624,21.496,21.496c0,5.93-2.403,11.304-6.297,15.199
		c-3.883,3.894-9.257,6.297-15.199,6.297h-12.192v-42.992L343.716,167.339L343.716,167.339z"/>
	<path style="fill:#666666;" d="M89.468,167.339v42.992h-12.18c-11.873,0-21.508-9.624-21.508-21.496
		c0-5.93,2.403-11.304,6.297-15.199s9.268-6.297,15.211-6.297L89.468,167.339L89.468,167.339z"/>
</g>
<rect x="298.199" y="422.038" style="fill:#F95428;" width="158.013" height="81.084"/>
<g>
	<path style="fill:#F7B239;" d="M331.524,167.339v42.992c0,10.997-8.913,19.91-19.898,19.91c-10.997,0-19.91-8.913-19.91-19.91
		v-42.992c0-5.504,2.225-10.476,5.836-14.074c3.598-3.61,8.57-5.836,14.074-5.836C322.611,147.429,331.524,156.343,331.524,167.339z
		"/>
	<path style="fill:#F7B239;" d="M129.288,167.339v42.992c0,10.997-8.913,19.91-19.91,19.91s-19.91-8.913-19.91-19.91v-42.992
		c0-5.504,2.225-10.476,5.836-14.074c3.598-3.61,8.57-5.836,14.074-5.836C120.375,147.429,129.288,156.343,129.288,167.339z"/>
</g>
<g>
	<path style="fill:#333333;" d="M456.215,413.157H298.199c-4.904,0-8.878,3.975-8.878,8.878v34.326h-37.986
		c-17.622,0-31.959-14.336-31.959-31.959v-7.696c0-32.568,17.638-62.71,46.033-78.663c33.981-19.092,55.09-55.165,55.09-94.142
		v-6.188c8.74-2.842,15.657-9.757,18.498-18.499h4.715c16.749,0,30.377-13.627,30.377-30.377s-13.628-30.377-30.377-30.377h-3.307
		v-28.552C340.404,58.275,282.129,0,210.498,0S80.591,58.275,80.591,129.907v28.552h-3.307c-16.751,0-30.377,13.627-30.377,30.377
		s13.627,30.377,30.377,30.377h4.715c2.842,8.742,9.757,15.657,18.499,18.499v6.188c0,38.976,21.109,75.049,55.091,94.142
		c28.394,15.953,46.032,46.093,46.032,78.663v7.696l0,0c0,27.412,22.301,49.713,49.714,49.713h37.986v29.006
		c0,4.903,3.974,8.878,8.878,8.878h158.016c4.904,0,8.878-3.975,8.878-8.878v-81.087
		C465.093,417.132,461.118,413.157,456.215,413.157z M311.621,221.364c-6.082,0-11.029-4.948-11.029-11.029v-42.999
		c0-6.082,4.948-11.029,11.029-11.029s11.027,4.948,11.027,11.029v42.999C322.649,216.417,317.701,221.364,311.621,221.364z
		 M356.333,188.835c0,6.959-5.662,12.622-12.622,12.622h-3.307v-25.244h3.307C350.672,176.214,356.333,181.876,356.333,188.835z
		 M64.662,188.835c0-6.959,5.663-12.622,12.622-12.622h3.307v25.244h-3.307C70.325,201.457,64.662,195.796,64.662,188.835z
		 M98.347,167.336c0-6.082,4.948-11.029,11.029-11.029c6.082,0,11.029,4.948,11.029,11.029v42.999
		c0,6.081-4.948,11.029-11.029,11.029s-11.029-4.948-11.029-11.029V167.336z M164.285,322.563
		c-28.394-15.954-46.032-46.095-46.032-78.663v-6.188c11.54-3.751,19.906-14.602,19.906-27.377v-42.999
		c0-15.872-12.913-28.784-28.784-28.784c-3.905,0-7.63,0.785-11.029,2.201v-10.845c0-61.84,50.311-112.151,112.151-112.151
		c61.839,0,112.15,50.311,112.15,112.151v10.845c-3.398-1.416-7.122-2.201-11.027-2.201c-15.871,0-28.784,12.913-28.784,28.784
		v42.999c0,12.775,8.368,23.626,19.906,27.377v6.188c0,32.567-17.638,62.709-46.032,78.663
		c-20.936,11.763-36.975,29.976-46.213,51.337C201.261,352.538,185.221,334.326,164.285,322.563z M447.338,494.244H307.077v-63.332
		h140.261L447.338,494.244L447.338,494.244z"/>
	<path style="fill:#333333;" d="M329.622,485.66c4.904,0,8.878-3.975,8.878-8.878v-28.407c0-4.903-3.974-8.878-8.878-8.878
		c-4.904,0-8.878,3.975-8.878,8.878v28.408C320.744,481.685,324.718,485.66,329.622,485.66z"/>
	<path style="fill:#333333;" d="M356.254,485.66c4.904,0,8.878-3.975,8.878-8.878v-28.407c0-4.903-3.974-8.878-8.878-8.878
		c-4.904,0-8.878,3.975-8.878,8.878v28.408C347.376,481.685,351.35,485.66,356.254,485.66z"/>
	<circle style="fill:#333333;" cx="423.719" cy="448.376" r="8.878"/>
	<circle style="fill:#333333;" cx="423.719" cy="476.607" r="8.878"/>
</g>
</svg>